<svg width="1000" height="972" viewBox="0 0 1000 972" fill="none" xmlns="http://www.w3.org/2000/svg">
<path d="M904.133 213.824C946.182 253.245 937.454 260.097 958.478 335.785C984.758 430.394 993.994 303.498 999.852 234.995C1004.76 177.578 886.816 151.463 775.223 67.2236C773.808 66.1261 772.47 65.1081 771.215 64.1732C772.552 65.1987 773.887 66.2155 775.223 67.2236C804.292 89.778 874.931 153.678 904.133 213.824Z" fill="#BABBD9"/>
<path d="M904.133 213.824C946.182 253.245 937.454 260.097 958.478 335.785C984.758 430.394 993.994 303.498 999.852 234.995C1004.76 177.578 886.816 151.463 775.223 67.2236C773.808 66.1261 772.47 65.1081 771.215 64.1732C772.552 65.1987 773.887 66.2155 775.223 67.2236C804.292 89.778 874.931 153.678 904.133 213.824Z" fill="url(#paint0_linear)"/>
<path d="M942.732 367.249C942.732 611.087 745.064 808.757 501.226 808.757C257.387 808.757 59.7166 611.087 59.7166 367.249C59.7166 123.41 257.387 0 501.226 0C745.064 0 942.732 123.41 942.732 367.249Z" fill="#BABBD9"/>
<path d="M942.732 367.249C942.732 611.087 745.064 808.757 501.226 808.757C257.387 808.757 59.7166 611.087 59.7166 367.249C59.7166 123.41 257.387 0 501.226 0C745.064 0 942.732 123.41 942.732 367.249Z" fill="url(#paint1_linear)"/>
<path d="M925.822 577.491C959.452 445.37 942.466 309.432 925.822 256.872C990.997 631.103 708.574 778.973 560.528 803.501C597.321 835.037 586.808 903.366 592.064 950.67C605.204 982.207 681.417 975.373 707.697 950.67C802.756 861.317 889.029 722.032 925.822 577.491Z" fill="#BABBD9"/>
<path d="M925.822 577.491C959.452 445.37 942.466 309.432 925.822 256.872C990.997 631.103 708.574 778.973 560.528 803.501C597.321 835.037 586.808 903.366 592.064 950.67C605.204 982.207 681.417 975.373 707.697 950.67C802.756 861.317 889.029 722.032 925.822 577.491Z" fill="url(#paint2_linear)"/>
<path d="M76.0824 577.491C42.4517 445.37 59.4382 309.432 76.0824 256.872C10.9074 631.103 291.593 776.344 439.639 800.873C402.847 832.409 415.098 903.366 409.842 950.67C396.702 982.207 320.489 975.373 294.209 950.67C199.15 861.317 112.875 722.032 76.0824 577.491Z" fill="#BABBD9"/>
<path d="M76.0824 577.491C42.4517 445.37 59.4382 309.432 76.0824 256.872C10.9074 631.103 291.593 776.344 439.639 800.873C402.847 832.409 415.098 903.366 409.842 950.67C396.702 982.207 320.489 975.373 294.209 950.67C199.15 861.317 112.875 722.032 76.0824 577.491Z" fill="url(#paint3_linear)"/>
<path d="M95.867 217.231C53.8185 256.652 62.5464 263.504 41.5221 339.192C15.2418 433.801 6.00645 306.905 0.148229 238.402C-4.76194 180.985 113.185 154.87 224.778 70.6305C226.193 69.533 227.531 68.5151 228.786 67.5802C227.45 68.6057 226.114 69.6224 224.778 70.6305C195.709 93.1849 125.069 157.085 95.867 217.231Z" fill="#BABBD9"/>
<path d="M95.867 217.231C53.8185 256.652 62.5464 263.504 41.5221 339.192C15.2418 433.801 6.00645 306.905 0.148229 238.402C-4.76194 180.985 113.185 154.87 224.778 70.6305C226.193 69.533 227.531 68.5151 228.786 67.5802C227.45 68.6057 226.114 69.6224 224.778 70.6305C195.709 93.1849 125.069 157.085 95.867 217.231Z" fill="url(#paint4_linear)"/>
<path d="M391.435 428.955C399.894 477.033 348.452 516.289 286.827 516.289C225.203 516.289 182.22 481.419 182.22 389.327C182.22 327.702 217.286 303.548 307.749 359.216C381.607 404.667 386.527 401.059 391.435 428.955Z" fill="#E1F5F3"/>
<path fill-rule="evenodd" clip-rule="evenodd" d="M300.918 471.094C319.506 471.094 334.575 456.025 334.575 437.437C334.575 432.74 333.613 428.268 331.875 424.207C329.564 427.14 325.979 429.023 321.956 429.023C314.985 429.023 309.334 423.372 309.334 416.402C309.334 412.377 311.218 408.793 314.151 406.482C310.089 404.743 305.616 403.781 300.918 403.781C282.33 403.781 267.261 418.849 267.261 437.437C267.261 456.025 282.33 471.094 300.918 471.094Z" fill="#040203"/>
<path d="M620.465 428.955C612.006 477.033 663.448 516.289 725.073 516.289C786.697 516.289 829.68 481.419 829.68 389.327C829.68 327.702 794.614 303.548 704.151 359.216C630.292 404.667 625.373 401.059 620.465 428.955Z" fill="#E1F5F3"/>
<path fill-rule="evenodd" clip-rule="evenodd" d="M729.354 426.125C722.383 426.125 716.733 420.475 716.733 413.504C716.733 410.231 717.978 407.25 720.021 405.007C717.145 404.207 714.113 403.779 710.981 403.779C692.393 403.779 677.325 418.848 677.325 437.436C677.325 456.024 692.393 471.093 710.981 471.093C729.57 471.093 744.638 456.024 744.638 437.436C744.638 431.19 742.937 425.342 739.973 420.329C737.727 423.816 733.81 426.125 729.354 426.125Z" fill="#040203"/>
<path d="M400.883 643.842C444.364 611.448 556.173 611.448 607.398 643.842C558.806 625.62 440.593 626.52 400.883 643.842Z" fill="url(#paint5_linear)" stroke="url(#paint6_linear)" stroke-linejoin="round"/>
<defs>
<linearGradient id="paint0_linear" x1="294.496" y1="180.905" x2="727.827" y2="833.004" gradientUnits="userSpaceOnUse">
<stop offset="0.159375" stop-color="#BABBD9" stop-opacity="0.71"/>
<stop offset="0.753125" stop-color="#8C8EB8"/>
</linearGradient>
<linearGradient id="paint1_linear" x1="294.496" y1="180.905" x2="727.827" y2="833.004" gradientUnits="userSpaceOnUse">
<stop offset="0.159375" stop-color="#BABBD9" stop-opacity="0.71"/>
<stop offset="0.753125" stop-color="#8C8EB8"/>
</linearGradient>
<linearGradient id="paint2_linear" x1="294.496" y1="180.905" x2="727.827" y2="833.004" gradientUnits="userSpaceOnUse">
<stop offset="0.159375" stop-color="#BABBD9" stop-opacity="0.71"/>
<stop offset="0.753125" stop-color="#8C8EB8"/>
</linearGradient>
<linearGradient id="paint3_linear" x1="294.496" y1="180.905" x2="727.827" y2="833.004" gradientUnits="userSpaceOnUse">
<stop offset="0.159375" stop-color="#BABBD9" stop-opacity="0.71"/>
<stop offset="0.753125" stop-color="#8C8EB8"/>
</linearGradient>
<linearGradient id="paint4_linear" x1="294.496" y1="180.905" x2="727.827" y2="833.004" gradientUnits="userSpaceOnUse">
<stop offset="0.159375" stop-color="#BABBD9" stop-opacity="0.71"/>
<stop offset="0.753125" stop-color="#8C8EB8"/>
</linearGradient>
<linearGradient id="paint5_linear" x1="500.268" y1="600.11" x2="500.268" y2="671.378" gradientUnits="userSpaceOnUse">
<stop offset="0.216667" stop-color="#040203" stop-opacity="0.51"/>
<stop offset="0.789583" stop-color="#040203"/>
</linearGradient>
<linearGradient id="paint6_linear" x1="498.067" y1="607.398" x2="498.067" y2="631.694" gradientUnits="userSpaceOnUse">
<stop offset="0.398958" stop-color="#040203" stop-opacity="0.51"/>
<stop offset="0.836458" stop-color="#040203"/>
</linearGradient>
</defs>
</svg>
