<svg width="1000" height="972" viewBox="0 0 1000 972" fill="none" xmlns="http://www.w3.org/2000/svg">
<path d="M904.133 213.824C946.182 253.245 937.454 260.097 958.478 335.785C984.758 430.394 993.994 303.498 999.852 234.995C1004.76 177.578 886.816 151.463 775.223 67.2236C773.808 66.1261 772.47 65.1081 771.215 64.1732C772.552 65.1987 773.887 66.2155 775.223 67.2236C804.292 89.778 874.931 153.678 904.133 213.824Z" fill="#BABBD9"/>
<path d="M904.133 213.824C946.182 253.245 937.454 260.097 958.478 335.785C984.758 430.394 993.994 303.498 999.852 234.995C1004.76 177.578 886.816 151.463 775.223 67.2236C773.808 66.1261 772.47 65.1081 771.215 64.1732C772.552 65.1987 773.887 66.2155 775.223 67.2236C804.292 89.778 874.931 153.678 904.133 213.824Z" fill="url(#paint0_linear)"/>
<path d="M942.732 367.249C942.732 611.087 745.064 808.757 501.226 808.757C257.387 808.757 59.7166 611.087 59.7166 367.249C59.7166 123.41 257.387 0 501.226 0C745.064 0 942.732 123.41 942.732 367.249Z" fill="#BABBD9"/>
<path d="M942.732 367.249C942.732 611.087 745.064 808.757 501.226 808.757C257.387 808.757 59.7166 611.087 59.7166 367.249C59.7166 123.41 257.387 0 501.226 0C745.064 0 942.732 123.41 942.732 367.249Z" fill="url(#paint1_linear)"/>
<path d="M925.822 577.491C959.452 445.37 942.466 309.432 925.822 256.872C990.997 631.103 708.574 778.972 560.528 803.501C597.321 835.037 586.808 903.366 592.064 950.67C605.204 982.207 681.417 975.373 707.697 950.67C802.756 861.317 889.029 722.032 925.822 577.491Z" fill="#BABBD9"/>
<path d="M925.822 577.491C959.452 445.37 942.466 309.432 925.822 256.872C990.997 631.103 708.574 778.972 560.528 803.501C597.321 835.037 586.808 903.366 592.064 950.67C605.204 982.207 681.417 975.373 707.697 950.67C802.756 861.317 889.029 722.032 925.822 577.491Z" fill="url(#paint2_linear)"/>
<path d="M76.0824 577.491C42.4517 445.37 59.4382 309.432 76.0824 256.872C10.9074 631.103 291.593 776.344 439.639 800.873C402.847 832.409 415.098 903.366 409.842 950.67C396.702 982.207 320.489 975.373 294.209 950.67C199.15 861.317 112.875 722.032 76.0824 577.491Z" fill="#BABBD9"/>
<path d="M76.0824 577.491C42.4517 445.37 59.4382 309.432 76.0824 256.872C10.9074 631.103 291.593 776.344 439.639 800.873C402.847 832.409 415.098 903.366 409.842 950.67C396.702 982.207 320.489 975.373 294.209 950.67C199.15 861.317 112.875 722.032 76.0824 577.491Z" fill="url(#paint3_linear)"/>
<path d="M95.867 217.231C53.8185 256.652 62.5464 263.504 41.5221 339.192C15.2418 433.801 6.00645 306.905 0.148229 238.402C-4.76194 180.985 113.185 154.87 224.778 70.6305C226.193 69.533 227.531 68.5151 228.786 67.5802C227.45 68.6057 226.114 69.6224 224.778 70.6305C195.709 93.1849 125.069 157.085 95.867 217.231Z" fill="#BABBD9"/>
<path d="M95.867 217.231C53.8185 256.652 62.5464 263.504 41.5221 339.192C15.2418 433.801 6.00645 306.905 0.148229 238.402C-4.76194 180.985 113.185 154.87 224.778 70.6305C226.193 69.533 227.531 68.5151 228.786 67.5802C227.45 68.6057 226.114 69.6224 224.778 70.6305C195.709 93.1849 125.069 157.085 95.867 217.231Z" fill="url(#paint4_linear)"/>
<path d="M400.883 642.324C443.401 611.954 552.732 611.954 602.823 642.324C558.806 636.25 449.475 636.25 400.883 642.324Z" fill="url(#paint5_linear)" stroke="url(#paint6_linear)" stroke-linejoin="round"/>
<path d="M601.793 470.322C583.324 522.091 631.647 493.745 686.313 530.189C747.053 584.855 770.796 588.971 789.265 537.202C807.733 485.433 780.738 428.494 728.969 410.026C677.2 391.558 620.261 418.553 601.793 470.322Z" fill="#E1F5F3"/>
<path fill-rule="evenodd" clip-rule="evenodd" d="M703.97 545.456C715.1 539.966 722.757 528.504 722.757 515.254C722.757 508.69 720.877 502.564 717.627 497.386C717.662 497.766 717.679 498.151 717.679 498.54C717.679 505.51 712.028 511.161 705.058 511.161C698.087 511.161 692.437 505.51 692.437 498.54C692.437 491.569 698.087 485.919 705.058 485.919C705.251 485.919 705.442 485.923 705.633 485.932C700.75 483.172 695.109 481.598 689.1 481.598C670.549 481.598 655.503 496.607 655.443 515.144C665.199 518.399 675.649 523.049 686.342 530.177C692.599 535.809 698.464 540.904 703.97 545.456Z" fill="#040203"/>
<path d="M403.132 474.644C421.6 526.413 373.277 498.067 318.611 534.511C257.871 589.177 234.128 593.292 215.659 541.523C197.191 489.754 224.187 432.816 275.956 414.347C327.725 395.879 384.663 422.875 403.132 474.644Z" fill="#E1F5F3"/>
<path fill-rule="evenodd" clip-rule="evenodd" d="M300.952 549.776C289.823 544.285 282.167 532.824 282.167 519.575C282.167 500.987 297.236 485.919 315.824 485.919C320.522 485.919 324.994 486.881 329.056 488.619C326.121 490.93 324.237 494.515 324.237 498.54C324.237 505.51 329.888 511.161 336.859 511.161C340.884 511.161 344.469 509.277 346.78 506.343C348.504 510.372 349.465 514.805 349.481 519.462C339.725 522.717 329.275 527.367 318.582 534.496C312.324 540.128 306.459 545.223 300.952 549.776Z" fill="#040203"/>
<defs>
<linearGradient id="paint0_linear" x1="294.496" y1="180.905" x2="727.827" y2="833.004" gradientUnits="userSpaceOnUse">
<stop offset="0.159375" stop-color="#BABBD9" stop-opacity="0.71"/>
<stop offset="0.753125" stop-color="#8C8EB8"/>
</linearGradient>
<linearGradient id="paint1_linear" x1="294.496" y1="180.905" x2="727.827" y2="833.004" gradientUnits="userSpaceOnUse">
<stop offset="0.159375" stop-color="#BABBD9" stop-opacity="0.71"/>
<stop offset="0.753125" stop-color="#8C8EB8"/>
</linearGradient>
<linearGradient id="paint2_linear" x1="294.496" y1="180.905" x2="727.827" y2="833.004" gradientUnits="userSpaceOnUse">
<stop offset="0.159375" stop-color="#BABBD9" stop-opacity="0.71"/>
<stop offset="0.753125" stop-color="#8C8EB8"/>
</linearGradient>
<linearGradient id="paint3_linear" x1="294.496" y1="180.905" x2="727.827" y2="833.004" gradientUnits="userSpaceOnUse">
<stop offset="0.159375" stop-color="#BABBD9" stop-opacity="0.71"/>
<stop offset="0.753125" stop-color="#8C8EB8"/>
</linearGradient>
<linearGradient id="paint4_linear" x1="294.496" y1="180.905" x2="727.827" y2="833.004" gradientUnits="userSpaceOnUse">
<stop offset="0.159375" stop-color="#BABBD9" stop-opacity="0.71"/>
<stop offset="0.753125" stop-color="#8C8EB8"/>
</linearGradient>
<linearGradient id="paint5_linear" x1="498.067" y1="601.324" x2="498.067" y2="668.138" gradientUnits="userSpaceOnUse">
<stop offset="0.216667" stop-color="#040203" stop-opacity="0.51"/>
<stop offset="0.789583" stop-color="#040203"/>
</linearGradient>
<linearGradient id="paint6_linear" x1="498.067" y1="619.546" x2="498.067" y2="643.842" gradientUnits="userSpaceOnUse">
<stop offset="0.398958" stop-color="#040203" stop-opacity="0.51"/>
<stop offset="0.836458" stop-color="#040203"/>
</linearGradient>
</defs>
</svg>
