<svg width="1000" height="973" viewBox="0 0 1000 973" fill="none" xmlns="http://www.w3.org/2000/svg">
<path d="M904.133 214.109C946.182 253.529 937.454 260.382 958.478 336.07C984.758 430.679 993.994 303.783 999.852 235.28C1004.76 177.863 886.816 151.748 775.223 67.5085C773.808 66.411 772.47 65.393 771.215 64.4581C772.551 65.4837 773.887 66.5004 775.223 67.5085C804.292 90.0629 874.931 153.963 904.133 214.109Z" fill="#BABBD9"/>
<path d="M904.133 214.109C946.182 253.529 937.454 260.382 958.478 336.07C984.758 430.679 993.994 303.783 999.852 235.28C1004.76 177.863 886.816 151.748 775.223 67.5085C773.808 66.411 772.47 65.393 771.215 64.4581C772.551 65.4837 773.887 66.5004 775.223 67.5085C804.292 90.0629 874.931 153.963 904.133 214.109Z" fill="url(#paint0_linear)"/>
<path d="M942.732 367.534C942.732 611.372 745.064 809.042 501.226 809.042C257.387 809.042 59.7166 611.372 59.7166 367.534C59.7166 123.695 257.387 0.284912 501.226 0.284912C745.064 0.284912 942.732 123.695 942.732 367.534Z" fill="#BABBD9"/>
<path d="M942.732 367.534C942.732 611.372 745.064 809.042 501.226 809.042C257.387 809.042 59.7166 611.372 59.7166 367.534C59.7166 123.695 257.387 0.284912 501.226 0.284912C745.064 0.284912 942.732 123.695 942.732 367.534Z" fill="url(#paint1_linear)"/>
<path d="M925.822 577.776C959.452 445.655 942.466 309.717 925.822 257.156C990.997 631.388 708.574 779.257 560.528 803.786C597.321 835.322 586.808 903.651 592.064 950.955C605.204 982.492 681.417 975.658 707.697 950.955C802.756 861.602 889.029 722.317 925.822 577.776Z" fill="#BABBD9"/>
<path d="M925.822 577.776C959.452 445.655 942.466 309.717 925.822 257.156C990.997 631.388 708.574 779.257 560.528 803.786C597.321 835.322 586.808 903.651 592.064 950.955C605.204 982.492 681.417 975.658 707.697 950.955C802.756 861.602 889.029 722.317 925.822 577.776Z" fill="url(#paint2_linear)"/>
<path d="M76.0824 577.776C42.4517 445.655 59.4382 309.717 76.0824 257.156C10.9074 631.388 291.593 776.629 439.639 801.158C402.847 832.694 415.098 903.651 409.842 950.955C396.702 982.492 320.489 975.658 294.209 950.955C199.15 861.602 112.875 722.317 76.0824 577.776Z" fill="#BABBD9"/>
<path d="M76.0824 577.776C42.4517 445.655 59.4382 309.717 76.0824 257.156C10.9074 631.388 291.593 776.629 439.639 801.158C402.847 832.694 415.098 903.651 409.842 950.955C396.702 982.492 320.489 975.658 294.209 950.955C199.15 861.602 112.875 722.317 76.0824 577.776Z" fill="url(#paint3_linear)"/>
<path d="M95.867 217.516C53.8185 256.936 62.5463 263.789 41.5221 339.476C15.2418 434.086 6.00645 307.189 0.148229 238.687C-4.76194 181.27 113.185 155.155 224.778 70.9154C226.193 69.8179 227.531 68.8 228.786 67.8651C227.45 68.8906 226.114 69.9073 224.778 70.9154C195.709 93.4698 125.069 157.37 95.867 217.516Z" fill="#BABBD9"/>
<path d="M95.867 217.516C53.8185 256.936 62.5463 263.789 41.5221 339.476C15.2418 434.086 6.00645 307.189 0.148229 238.687C-4.76194 181.27 113.185 155.155 224.778 70.9154C226.193 69.8179 227.531 68.8 228.786 67.8651C227.45 68.8906 226.114 69.9073 224.778 70.9154C195.709 93.4698 125.069 157.37 95.867 217.516Z" fill="url(#paint4_linear)"/>
<path d="M400.987 436.375C400.987 491.34 400.987 505.136 301.465 505.136C201.942 505.136 201.942 491.34 201.942 436.375C201.942 381.41 246.5 336.853 301.465 336.853C356.429 336.853 400.987 381.41 400.987 436.375Z" fill="#E1F5F3"/>
<path d="M588.996 436.375C588.996 491.34 588.996 505.136 688.518 505.136C788.04 505.136 788.04 491.34 788.04 436.375C788.04 381.41 743.482 336.853 688.518 336.853C633.553 336.853 588.996 381.41 588.996 436.375Z" fill="#E1F5F3"/>
<path d="M403.878 602.525C462.013 571.467 541.565 575.904 605.819 602.525C545.985 721.75 459.973 717.206 403.878 602.525Z" fill="url(#paint5_linear)" stroke="url(#paint6_linear)" stroke-width="20.3964" stroke-linejoin="round"/>
<path d="M601.612 614.684C560.987 625.685 448.71 625.685 408.086 614.684L403.928 602.494C400.19 574.039 610.494 573.333 605.739 602.308L601.612 614.684Z" fill="#F4F4F4" stroke="#F4F4F4" stroke-width="20.3964" stroke-linejoin="round"/>
<path fill-rule="evenodd" clip-rule="evenodd" d="M302.911 471.48C321.499 471.48 336.568 456.411 336.568 437.823C336.568 433.126 335.606 428.654 333.868 424.593C331.557 427.526 327.972 429.409 323.948 429.409C316.978 429.409 311.327 423.758 311.327 416.788C311.327 412.763 313.211 409.179 316.144 406.868C312.082 405.129 307.609 404.166 302.911 404.166C284.323 404.166 269.254 419.235 269.254 437.823C269.254 456.411 284.323 471.48 302.911 471.48Z" fill="#040203"/>
<path fill-rule="evenodd" clip-rule="evenodd" d="M689.961 471.48C708.55 471.48 723.618 456.411 723.618 437.823C723.618 433.124 722.655 428.65 720.916 424.588C718.605 427.524 715.019 429.409 710.993 429.409C704.022 429.409 698.372 423.758 698.372 416.788C698.372 412.762 700.256 409.177 703.191 406.866C699.13 405.128 694.658 404.166 689.961 404.166C671.373 404.166 656.305 419.235 656.305 437.823C656.305 456.411 671.373 471.48 689.961 471.48Z" fill="#040203"/>
<defs>
<linearGradient id="paint0_linear" x1="294.496" y1="181.19" x2="727.827" y2="833.289" gradientUnits="userSpaceOnUse">
<stop offset="0.159375" stop-color="#BABBD9" stop-opacity="0.71"/>
<stop offset="0.753125" stop-color="#8C8EB8"/>
</linearGradient>
<linearGradient id="paint1_linear" x1="294.496" y1="181.19" x2="727.827" y2="833.289" gradientUnits="userSpaceOnUse">
<stop offset="0.159375" stop-color="#BABBD9" stop-opacity="0.71"/>
<stop offset="0.753125" stop-color="#8C8EB8"/>
</linearGradient>
<linearGradient id="paint2_linear" x1="294.496" y1="181.19" x2="727.827" y2="833.289" gradientUnits="userSpaceOnUse">
<stop offset="0.159375" stop-color="#BABBD9" stop-opacity="0.71"/>
<stop offset="0.753125" stop-color="#8C8EB8"/>
</linearGradient>
<linearGradient id="paint3_linear" x1="294.496" y1="181.19" x2="727.827" y2="833.289" gradientUnits="userSpaceOnUse">
<stop offset="0.159375" stop-color="#BABBD9" stop-opacity="0.71"/>
<stop offset="0.753125" stop-color="#8C8EB8"/>
</linearGradient>
<linearGradient id="paint4_linear" x1="294.496" y1="181.19" x2="727.827" y2="833.289" gradientUnits="userSpaceOnUse">
<stop offset="0.159375" stop-color="#BABBD9" stop-opacity="0.71"/>
<stop offset="0.753125" stop-color="#8C8EB8"/>
</linearGradient>
<linearGradient id="paint5_linear" x1="504.849" y1="580.864" x2="504.849" y2="690.248" gradientUnits="userSpaceOnUse">
<stop offset="0.216667" stop-color="#040203" stop-opacity="0.51"/>
<stop offset="0.789583" stop-color="#040203"/>
</linearGradient>
<linearGradient id="paint6_linear" x1="504.849" y1="580.864" x2="504.849" y2="690.248" gradientUnits="userSpaceOnUse">
<stop offset="0.398958" stop-color="#040203" stop-opacity="0.51"/>
<stop offset="0.836458" stop-color="#040203"/>
</linearGradient>
</defs>
</svg>
